# xmcd CD database file
#
# Track frame offsets:
#	150
#	17236
#	30746
#	46605
#	66588
#	84832
#	109471
#	130150
#	144465
#	166502
#	187778
#
# Disc length: 2700 seconds
#
# Revision: 0
# Processed by: cddbd v1.5.2PL0 Copyright (c) Steve Scherf et al.
# Submitted via: CDex 1.51
#
DISCID=870a8a0b
DTITLE=Laura López Castro - Laura López Castro y Don Philippe inventan el ser feliz
DYEAR=2007
DGENRE=Jazz
TTITLE0=acabou chorare
TTITLE1=oración
TTITLE2=no miramos nada
TTITLE3=fusión
TTITLE4=dindi
TTITLE5=hasta que vuelvas
TTITLE6=te inventaras el ser feliz
TTITLE7=tu me acostumbraste
TTITLE8=mi cuerpo al viento
TTITLE9=pra dizer adeus
TTITLE10=búscame
EXTD=YEAR: 2007
EXTT0=
EXTT1=
EXTT2=
EXTT3=
EXTT4=
EXTT5=
EXTT6=
EXTT7=
EXTT8=
EXTT9=
EXTT10=
PLAYORDER=
